<svg xmlns="http://www.w3.org/2000/svg" viewBox="0 0 512 512" role="img" aria-label="impostor app icon"><defs><radialGradient id="bg" cx="50%" cy="36%" r="72%"><stop offset="0" stop-color="#112932"/><stop offset="0.55" stop-color="#081317"/><stop offset="1" stop-color="#03070a"/></radialGradient><linearGradient id="ring" x1="80" y1="130" x2="432" y2="348"><stop offset="0" stop-color="#42f0ea"/><stop offset="0.52" stop-color="#e8e6dc"/><stop offset="1" stop-color="#ff8a3d"/></linearGradient><radialGradient id="eye" cx="50%" cy="50%" r="55%"><stop offset="0" stop-color="#ffb04c"/><stop offset="0.42" stop-color="#ff2d26"/><stop offset="1" stop-color="#8b0808"/></radialGradient><filter id="glow" x="-45%" y="-45%" width="190%" height="190%"><feGaussianBlur stdDeviation="5" result="blur"/><feMerge><feMergeNode in="blur"/><feMergeNode in="SourceGraphic"/></feMerge></filter></defs><rect width="512" height="512" rx="112" fill="url(#bg)"/><g opacity="0.52" fill="#e8e6dc"><circle cx="76" cy="92" r="3"/><circle cx="420" cy="86" r="3"/><circle cx="456" cy="254" r="2"/><circle cx="78" cy="330" r="2"/><circle cx="126" cy="430" r="2"/><path d="M92 148l5 12 12 5-12 5-5 12-5-12-12-5 12-5z"/><path d="M420 172l4 9 9 4-9 4-4 9-4-9-9-4 9-4z"/></g><g fill="none" stroke="url(#ring)" stroke-width="13" stroke-linecap="round" filter="url(#glow)"><path d="M86 286c-7-123 70-210 170-210 102 0 178 89 170 210"/><path d="M118 315c-22-140 43-219 138-219 97 0 161 82 138 219"/><path d="M133 364c59 57 188 57 246 0"/></g><g stroke="#071015" stroke-width="14" stroke-linejoin="round"><path d="M128 345l38-72 6-114 84-49 84 49 6 114 38 72-74 86H202z" fill="#10242a"/><path d="M171 158c38-32 132-32 170 0v104c-22 51-58 76-85 76s-63-25-85-76z" fill="#162f37"/><path d="M181 243c27-31 123-31 150 0v41c-24 39-53 56-75 56s-51-17-75-56z" fill="#071015"/></g><g opacity="0.62"><path d="M199 153l-31 90 63-121z" fill="#3b5660"/><path d="M313 122l53 113-26-84z" fill="#243b43"/><path d="M246 116l-26 92 80-98z" fill="#2b4650"/></g><g filter="url(#glow)"><path d="M187 230c27-24 56-26 82-5-30 1-53 11-70 33-9-5-13-14-12-28z" fill="url(#eye)"/><path d="M325 230c-27-24-56-26-82-5 30 1 53 11 70 33 9-5 13-14 12-28z" fill="url(#eye)"/></g><path d="M205 322c31 21 71 21 102 0" fill="none" stroke="#b0aea5" stroke-width="12" stroke-linecap="round" opacity="0.78"/><g fill="none" stroke="#31464e" stroke-width="11" stroke-linecap="round"><path d="M136 205h-34v88h45"/><path d="M376 205h34v88h-45"/></g><path d="M142 395c22-43 58-67 114-67s92 24 114 67c-24 34-65 55-114 55s-90-21-114-55z" fill="#03070a" opacity="0.62"/><ellipse cx="414" cy="84" rx="48" ry="17" transform="rotate(-24 414 84)" fill="none" stroke="#b0aea5" stroke-width="9" opacity="0.45"/><circle cx="414" cy="84" r="25" fill="#b0aea5" opacity="0.18"/></svg>