<svg xmlns="http://www.w3.org/2000/svg" viewBox="0 0 512 512" role="img" aria-label="Impostor app logo"><defs><radialGradient id="bg" cx="50%" cy="35%" r="72%"><stop offset="0" stop-color="#10252c"/><stop offset="0.58" stop-color="#081317"/><stop offset="1" stop-color="#03070a"/></radialGradient><linearGradient id="ring" x1="80" y1="150" x2="432" y2="330"><stop offset="0" stop-color="#42f0ea"/><stop offset="0.52" stop-color="#e8e6dc"/><stop offset="1" stop-color="#ff8a3d"/></linearGradient><radialGradient id="eye" cx="50%" cy="50%" r="50%"><stop offset="0" stop-color="#ffb04c"/><stop offset="0.45" stop-color="#ff2d26"/><stop offset="1" stop-color="#8b0808"/></radialGradient><filter id="glow" x="-40%" y="-40%" width="180%" height="180%"><feGaussianBlur stdDeviation="5" result="blur"/><feMerge><feMergeNode in="blur"/><feMergeNode in="SourceGraphic"/></feMerge></filter></defs><rect width="512" height="512" rx="108" fill="url(#bg)"/><g opacity="0.55" fill="#e8e6dc"><circle cx="76" cy="92" r="3"/><circle cx="420" cy="86" r="3"/><circle cx="456" cy="254" r="2"/><circle cx="78" cy="330" r="2"/><path d="M92 148l5 12 12 5-12 5-5 12-5-12-12-5 12-5z"/><path d="M420 172l4 9 9 4-9 4-4 9-4-9-9-4 9-4z"/></g><g fill="none" stroke="url(#ring)" stroke-width="12" stroke-linecap="round" filter="url(#glow)"><path d="M92 278c-3-111 68-190 164-190 97 0 166 81 164 190"/><path d="M122 302c-18-125 44-196 134-196 92 0 153 74 134 196"/><path d="M143 340c54 51 170 52 226 0"/></g><g stroke="#071015" stroke-width="14" stroke-linejoin="round"><path d="M139 328l34-64 5-99 78-43 78 43 5 99 34 64-64 75H203z" fill="#10242a"/><path d="M178 165c35-29 121-29 156 0v92c-20 45-53 67-78 67s-58-22-78-67z" fill="#162f37"/><path d="M184 240c25-28 119-28 144 0v36c-22 34-50 50-72 50s-50-16-72-50z" fill="#071015"/></g><g opacity="0.6"><path d="M202 162l-26 78 54-104z" fill="#3b5660"/><path d="M308 136l46 98-22-74z" fill="#243b43"/><path d="M244 130l-22 80 68-84z" fill="#2b4650"/></g><g filter="url(#glow)"><path d="M190 228c25-21 50-23 74-4-27 0-48 9-64 28-8-4-11-12-10-24z" fill="url(#eye)"/><path d="M322 228c-25-21-50-23-74-4 27 0 48 9 64 28 8-4 11-12 10-24z" fill="url(#eye)"/></g><path d="M207 308c28 18 70 18 98 0" fill="none" stroke="#b0aea5" stroke-width="12" stroke-linecap="round" opacity="0.75"/><g fill="none" stroke="#31464e" stroke-width="10" stroke-linecap="round"><path d="M142 206h-32v78h42"/><path d="M370 206h32v78h-42"/></g><path d="M155 378h202c20 0 36 16 36 36v10H119v-10c0-20 16-36 36-36z" fill="#03070a" opacity="0.88"/><text x="256" y="427" text-anchor="middle" font-family="Arial Black, Impact, Poppins, Arial, sans-serif" font-size="43" font-weight="900" letter-spacing="2" fill="#faf9f5" stroke="#03070a" stroke-width="4" paint-order="stroke">IMPOSTOR</text><ellipse cx="414" cy="84" rx="48" ry="17" transform="rotate(-24 414 84)" fill="none" stroke="#b0aea5" stroke-width="9" opacity="0.45"/><circle cx="414" cy="84" r="25" fill="#b0aea5" opacity="0.18"/></svg>