<svg xmlns="http://www.w3.org/2000/svg" viewBox="0 0 512 512" role="img" aria-label="Impostor app icon">
  <defs>
    <linearGradient id="bg" x1="44" y1="32" x2="470" y2="486" gradientUnits="userSpaceOnUse">
      <stop offset="0" stop-color="#08113d"/>
      <stop offset="0.48" stop-color="#151052"/>
      <stop offset="1" stop-color="#070716"/>
    </linearGradient>
    <radialGradient id="nebula" cx="0" cy="0" r="1" gradientUnits="userSpaceOnUse" gradientTransform="translate(386 178) rotate(126) scale(248 230)">
      <stop stop-color="#d817a2" stop-opacity=".58"/>
      <stop offset=".52" stop-color="#6120bc" stop-opacity=".24"/>
      <stop offset="1" stop-color="#19073d" stop-opacity="0"/>
    </radialGradient>
    <radialGradient id="planet" cx="0" cy="0" r="1" gradientUnits="userSpaceOnUse" gradientTransform="translate(104 74) rotate(43) scale(72)">
      <stop stop-color="#8b6dff"/>
      <stop offset=".58" stop-color="#4730d4"/>
      <stop offset="1" stop-color="#171163"/>
    </radialGradient>
    <linearGradient id="hood" x1="344" y1="70" x2="444" y2="354" gradientUnits="userSpaceOnUse">
      <stop stop-color="#37105a"/>
      <stop offset=".5" stop-color="#160821"/>
      <stop offset="1" stop-color="#07070d"/>
    </linearGradient>
    <linearGradient id="suit" x1="126" y1="222" x2="365" y2="487" gradientUnits="userSpaceOnUse">
      <stop stop-color="#ffffff"/>
      <stop offset=".55" stop-color="#e7edf8"/>
      <stop offset="1" stop-color="#b8c4dc"/>
    </linearGradient>
    <linearGradient id="visor" x1="177" y1="205" x2="335" y2="365" gradientUnits="userSpaceOnUse">
      <stop stop-color="#13c8ff"/>
      <stop offset=".46" stop-color="#0862c9"/>
      <stop offset="1" stop-color="#071b65"/>
    </linearGradient>
    <linearGradient id="blue" x1="106" y1="160" x2="334" y2="443" gradientUnits="userSpaceOnUse">
      <stop stop-color="#29d7ff"/>
      <stop offset=".58" stop-color="#1577e9"/>
      <stop offset="1" stop-color="#1745b0"/>
    </linearGradient>
    <linearGradient id="knife" x1="414" y1="211" x2="480" y2="137" gradientUnits="userSpaceOnUse">
      <stop stop-color="#f6edff"/>
      <stop offset=".5" stop-color="#ff63cb"/>
      <stop offset="1" stop-color="#ff315a"/>
    </linearGradient>
    <filter id="shadow" x="-30%" y="-30%" width="160%" height="180%">
      <feDropShadow dx="0" dy="14" stdDeviation="16" flood-color="#02020b" flood-opacity=".72"/>
    </filter>
    <filter id="cyanGlow" x="-80%" y="-80%" width="260%" height="260%">
      <feGaussianBlur stdDeviation="5" result="b"/>
      <feMerge><feMergeNode in="b"/><feMergeNode in="SourceGraphic"/></feMerge>
    </filter>
    <filter id="redGlow" x="-100%" y="-100%" width="300%" height="300%">
      <feGaussianBlur stdDeviation="7" result="b"/>
      <feMerge><feMergeNode in="b"/><feMergeNode in="SourceGraphic"/></feMerge>
    </filter>
    <clipPath id="clip"><rect width="512" height="512" rx="104"/></clipPath>
  </defs>

  <g clip-path="url(#clip)">
    <rect width="512" height="512" fill="url(#bg)"/>
    <rect width="512" height="512" fill="url(#nebula)"/>

    <g opacity=".9">
      <circle cx="56" cy="120" r="3" fill="#d7ecff"/>
      <circle cx="82" cy="183" r="2" fill="#8ccaff"/>
      <circle cx="225" cy="55" r="2.5" fill="#fff"/>
      <circle cx="289" cy="87" r="2" fill="#c9b7ff"/>
      <circle cx="457" cy="77" r="3" fill="#fff"/>
      <circle cx="473" cy="297" r="2.5" fill="#63dfff"/>
      <circle cx="69" cy="367" r="2.5" fill="#fff"/>
      <path d="M169 72l4 10 10 4-10 4-4 10-4-10-10-4 10-4z" fill="#d8f7ff"/>
      <path d="M430 105l3 7 7 3-7 3-3 7-3-7-7-3 7-3z" fill="#ffb3ee"/>
    </g>

    <g opacity=".96">
      <circle cx="96" cy="76" r="59" fill="url(#planet)"/>
      <ellipse cx="96" cy="76" rx="80" ry="18" transform="rotate(-24 96 76)" fill="none" stroke="#a37cff" stroke-width="7" stroke-opacity=".45"/>
      <ellipse cx="74" cy="55" rx="30" ry="14" transform="rotate(-25 74 55)" fill="#d6c8ff" fill-opacity=".13"/>
      <path d="M132 105c-17 16-43 26-69 25" fill="none" stroke="#100b50" stroke-width="8" stroke-linecap="round" opacity=".5"/>
    </g>

    <g filter="url(#shadow)">
      <path d="M331 83c34-40 97-38 129 4 31 41 30 112 14 171-15 56-46 100-88 118-38-16-65-54-78-107-15-60-9-141 23-186z" fill="url(#hood)" stroke="#d430b7" stroke-width="7" stroke-opacity=".65"/>
      <path d="M346 132c20-26 60-39 93-13 23 18 31 53 25 94-6 38-27 72-55 84-31-12-54-45-60-83-6-34-2-60-3-82z" fill="#05050b"/>
      <path d="M374 180c17-11 34-8 49 3-14 2-26 9-35 21-7-4-12-12-14-24z" fill="#ff3a3a" filter="url(#redGlow)"/>
      <path d="M444 180c-17-11-34-8-49 3 14 2 26 9 35 21 7-4 12-12 14-24z" fill="#ff3a3a" filter="url(#redGlow)"/>
      <g transform="rotate(12 435 272)">
        <path d="M410 286l42-87 18-22-4 29-33 92z" fill="url(#knife)" stroke="#ff87dc" stroke-width="4"/>
        <rect x="399" y="276" width="54" height="18" rx="7" fill="#13091c" stroke="#df3dc1" stroke-width="4"/>
        <path d="M404 289c-20 6-32 18-35 36 16 17 36 19 55 4l12-38z" fill="#090912"/>
      </g>
    </g>

    <g filter="url(#shadow)">
      <path d="M197 347c-53 3-87 28-103 76-8 24-8 55-2 89h300c6-34 4-64-7-89-19-44-55-69-108-76z" fill="url(#suit)" stroke="#c7d3e8" stroke-width="7"/>
      <path d="M153 370c-35 11-56 33-64 65-4 17-3 35 1 53h79c-3-51-8-86-16-118z" fill="#d4dcec"/>
      <path d="M302 361c46 8 76 33 88 75 5 17 6 35 3 52h-84c2-47-1-90-7-127z" fill="#cad4e8"/>
      <path d="M320 311c27 8 46 27 53 55l10 54-55 12-21-89z" fill="#17254a" stroke="#2b4c8f" stroke-width="6"/>
      <circle cx="353" cy="361" r="10" fill="#29dfff" filter="url(#cyanGlow)"/>
      <circle cx="361" cy="391" r="8" fill="#29dfff"/>

      <path d="M124 190c20-54 71-89 133-89 64 0 116 36 137 92 18 49 13 118-21 167-27 38-68 58-117 58-50 0-91-20-118-59-34-49-36-120-14-169z" fill="url(#suit)" stroke="#f7f9ff" stroke-width="8"/>
      <path d="M180 112c27-16 73-23 110-14l17 52-129 10z" fill="url(#blue)" stroke="#0b56bd" stroke-width="7"/>
      <path d="M137 222c-6 57 6 104 37 137 23 24 51 36 84 36 35 0 64-13 87-39 30-35 40-84 31-140-8-50-52-84-118-84-67 0-113 36-121 90z" fill="#07112a" stroke="#dce7fb" stroke-width="10"/>
      <path d="M153 225c-5 48 5 87 31 114 19 21 43 31 73 31 31 0 56-11 75-33 25-28 33-68 26-115-7-41-45-69-101-69-57 0-97 30-104 72z" fill="url(#visor)"/>
      <ellipse cx="214" cy="279" rx="45" ry="34" fill="#edfaff"/>
      <ellipse cx="302" cy="279" rx="45" ry="34" fill="#edfaff"/>
      <ellipse cx="230" cy="285" rx="18" ry="24" fill="#07102d"/>
      <ellipse cx="286" cy="285" rx="18" ry="24" fill="#07102d"/>
      <circle cx="236" cy="277" r="6" fill="#fff"/>
      <circle cx="292" cy="277" r="6" fill="#fff"/>
      <path d="M170 252c25-19 49-22 75-10" fill="none" stroke="#07102d" stroke-width="14" stroke-linecap="round"/>
      <path d="M345 252c-25-19-49-22-75-10" fill="none" stroke="#07102d" stroke-width="14" stroke-linecap="round"/>
      <path d="M176 339c50 25 111 24 161-3" fill="none" stroke="#57d7ff" stroke-width="7" stroke-linecap="round" opacity=".46"/>
      <ellipse cx="297" cy="191" rx="45" ry="16" transform="rotate(13 297 191)" fill="#d9fbff" opacity=".27"/>

      <path d="M118 209h-27c-18 0-31 14-31 31v76c0 18 13 31 31 31h35" fill="#12326c" stroke="#4db8ff" stroke-width="8"/>
      <path d="M96 205v-61" stroke="#cbeaff" stroke-width="9" stroke-linecap="round"/>
      <circle cx="96" cy="128" r="17" fill="#29dfff" stroke="#d9fbff" stroke-width="6" filter="url(#cyanGlow)"/>

      <path d="M154 410c-33 8-55 27-65 57-7 22 4 43 28 45 31 2 57-17 72-55 7-19 3-37-9-47-7-5-16-6-26 0z" fill="url(#blue)" stroke="#0e48a1" stroke-width="7"/>
      <path d="M132 432c19-2 33 7 41 26" fill="none" stroke="#49c9ff" stroke-width="7" stroke-linecap="round" opacity=".55"/>

      <circle cx="252" cy="431" r="44" fill="#071329" stroke="#227edf" stroke-width="8"/>
      <circle cx="252" cy="431" r="28" fill="#0b65c7"/>
      <path d="M252 408l7 16 16 7-16 7-7 16-7-16-16-7 16-7z" fill="#eaffff" filter="url(#cyanGlow)"/>
      <rect x="307" y="419" width="50" height="24" rx="10" fill="#263655"/>
      <rect x="316" y="425" width="22" height="12" rx="5" fill="#ff9d2f"/>
      <circle cx="347" cy="431" r="6" fill="#60708b"/>
      <path d="M335 380l36 12-10 44-42-16z" fill="#1974dc" stroke="#0f4b9c" stroke-width="6"/>
      <path d="M337 407l9 9 18-22" fill="none" stroke="#ffb52a" stroke-width="9" stroke-linecap="round" stroke-linejoin="round"/>
    </g>

    <rect x="5" y="5" width="502" height="502" rx="99" fill="none" stroke="#9ea8ff" stroke-width="7" stroke-opacity=".42"/>
    <path d="M34 430c89 61 296 89 445-5" fill="none" stroke="#2e7cff" stroke-width="9" stroke-linecap="round" opacity=".24"/>
  </g>
</svg>
